# xmcd
#
# Track frame offsets: 
#        150
#        16020
#        29502
#        41882
#        54552
#        68610
#        81950
#        95717
#        110610
#        124910
#        138572
#        151742
#        164560
#        175797
#        188397
#        200765
#        213025
#        227202
#        241395
#        254347
#        267640
#        283965
#
# Disc length: 3998 seconds
#
# Revision: 0
# Processed by: cddbd v1.5.2PL0 Copyright (c) Steve Scherf et al.
# Submitted via: ExactAudioCopyFreeDBPlugin 1.0
#
DISCID=430f9c16
DTITLE=Cow Cow Davenport - The Accompanist: 1924-1929
DYEAR=1993
DGENRE=Blues
TTITLE0=Dora Carr - You Might Pizen Me
TTITLE1=Dora Carr - Good Woman's Blues
TTITLE2=Dora Carr - He Don't Mean Me No Harm
TTITLE3=Dora Carr - Black Girl Gets There Just the Same
TTITLE4=Dora Carr - Fifth Street Blues
TTITLE5=Dora Carr - (If You Think You're Gonna Get What I Got) You Got
TTITLE5=Another Thought Coming to You
TTITLE6=Hound Head Henry - Hound Head Blues
TTITLE7=Hound Head Henry - Freight Train Special
TTITLE8=Hound Head Henry - Steamboat Blues
TTITLE9=Hound Head Henry - Cryin' Blues
TTITLE10=Hound Head Henry - Laughin' Blues
TTITLE11=Hound Head Henry - Low Down Hound Blues
TTITLE12=Hound Head Henry - My Silver Dollar Mama
TTITLE13=Hound Head Henry - Rooster Crowin' Blues
TTITLE14=Jim Towel - I've Been Hoodooed
TTITLE15=Jim Towel - Buckwheat Cakes
TTITLE16=Memphis Joe - Plenty Gals Blues
TTITLE17=Southern Blues Singers - Lighthouse Blues
TTITLE18=Southern Blues Singers - Runnin' Wild
TTITLE19=Southern Blues Singers - It's Tight Like That
TTITLE20=Lovin' Sam Theard - The Lover and the Beggar
TTITLE21=Lovin' Sam Theard - You Rascal You
EXTD=
EXTT0=
EXTT1=
EXTT2=
EXTT3=
EXTT4=
EXTT5=
EXTT6=
EXTT7=
EXTT8=
EXTT9=
EXTT10=
EXTT11=
EXTT12=
EXTT13=
EXTT14=
EXTT15=
EXTT16=
EXTT17=
EXTT18=
EXTT19=
EXTT20=
EXTT21=
PLAYORDER=
